<svg xmlns="http://www.w3.org/2000/svg" viewBox="0 0 512 512" fill="none" role="img" aria-label="NSN Cleaning icon">
  <defs>
    <linearGradient id="iconDrop" x1="256" y1="106" x2="256" y2="304" gradientUnits="userSpaceOnUse">
      <stop offset="0" stop-color="#38BDF8"/>
      <stop offset="1" stop-color="#1D4ED8"/>
    </linearGradient>
  </defs>
  <rect x="0" y="0" width="512" height="512" rx="104" fill="#0B1120"/>
  <path d="M96 232l120-90 38 20 56-47 64 67 40-29 98 59" stroke="#1D4ED8" stroke-width="20" stroke-linecap="round" stroke-linejoin="round"/>
  <path d="M178 222c0-38 28-86 78-144 50 58 78 106 78 144 0 49-35 92-78 92s-78-43-78-92Z" fill="url(#iconDrop)"/>
  <path d="M228 202c0-16 8-36 21-52 10 12 18 28 18 45 0 15-8 28-21 28-12 0-18-9-18-21Z" fill="#fff" opacity=".92"/>
  <text x="256" y="404" text-anchor="middle" font-family="Arial, Helvetica, sans-serif" font-size="84" font-weight="800" fill="#FFFFFF" letter-spacing="1">NSN</text>
</svg>
